<svg width="191" height="29" viewBox="0 0 191 29" fill="none" xmlns="http://www.w3.org/2000/svg">
<path d="M19 23H10L19 14V23Z" fill="url(#paint0_linear_4564_24531)"/>
<path opacity="0.14" d="M19.0001 23L14.3862 18.6897L15.0001 18L19.0001 23Z" fill="black"/>
<path d="M105 9.08432V12.1188C104.714 12.0778 104.469 12.0368 104.264 12.0368C102.997 12.0368 102.016 12.4058 101.321 13.144C100.626 13.8821 100.258 14.9072 100.258 16.2604V22.9035H97.0277V9.08432H100.094V11.2167C100.993 9.82244 102.629 9.08432 105 9.08432Z" fill="white"/>
<path d="M94.8199 16.9986H84.2718C84.4763 17.9827 84.926 18.7618 85.7028 19.3769C86.4796 19.951 87.4608 20.2381 88.6056 20.2381C90.0774 20.2381 91.3039 19.746 92.2442 18.7618L94.0431 20.5661C93.4299 21.3042 92.5713 21.9603 91.631 22.3294C90.6906 22.6984 89.6685 22.9035 88.5238 22.9035C87.052 22.9035 85.7437 22.6164 84.6398 22.0013C83.5359 21.4273 82.6365 20.6071 82.0232 19.541C81.41 18.4748 81.1238 17.2856 81.1238 15.9734C81.1238 14.6612 81.41 13.472 82.0232 12.4468C82.6365 11.3807 83.4542 10.5606 84.5172 9.98646C85.5801 9.41237 86.7658 9.08432 88.0741 9.08432C89.3824 9.08432 90.568 9.37137 91.5901 9.94545C92.6122 10.5195 93.4299 11.3397 94.0023 12.4058C94.5746 13.472 94.8608 14.6612 94.8608 16.0554C94.8608 16.2604 94.8608 16.5885 94.8199 16.9986ZM85.5393 12.5289C84.8442 13.144 84.4354 13.9231 84.2718 14.9072H91.8763C91.7536 13.9231 91.3448 13.144 90.6498 12.5289C89.9547 11.9138 89.0962 11.6267 88.0741 11.6267C87.052 11.6267 86.2343 11.9138 85.5393 12.5289Z" fill="white"/>
<path d="M81.2871 9.08432L75.3181 22.9035H72.2109L66.2418 9.08432H69.5125L73.8462 19.2539L78.3026 9.08432H81.2871Z" fill="white"/>
<path d="M66.5283 16.9986H55.9802C56.1846 17.9827 56.6344 18.7618 57.4112 19.3769C58.188 19.951 59.1692 20.2381 60.3139 20.2381C61.7858 20.2381 63.0123 19.746 63.9526 18.7618L65.7515 20.5661C65.1382 21.3042 64.2797 21.9603 63.3393 22.3294C62.399 22.6984 61.3769 22.9035 60.2322 22.9035C58.7603 22.9035 57.452 22.6164 56.3482 22.0013C55.2443 21.4273 54.3449 20.6071 53.7316 19.541C53.1183 18.4748 52.8322 17.2856 52.8322 15.9734C52.8322 14.6612 53.1183 13.472 53.7316 12.4468C54.3449 11.3807 55.1625 10.5606 56.2255 9.98646C57.2885 9.41237 58.4741 9.08432 59.7824 9.08432C61.0907 9.08432 62.2764 9.37137 63.2985 9.94545C64.3206 10.5195 65.1382 11.3397 65.7106 12.4058C66.283 13.472 66.5692 14.6612 66.5692 16.0554C66.5692 16.2604 66.5692 16.5885 66.5283 16.9986ZM57.2067 12.5289C56.5117 13.144 56.1029 13.9231 55.9393 14.9072H63.5438C63.4211 13.9231 63.0123 13.144 62.3172 12.5289C61.6222 11.9138 60.7636 11.6267 59.7415 11.6267C58.7603 11.6267 57.9018 11.9138 57.2067 12.5289Z" fill="white"/>
<path d="M46.8219 4H49.97V22.904H46.8219V4Z" fill="white"/>
<path d="M40.2805 9.08432H44.2053L35.6606 17.6957L33.6981 15.7274L40.2805 9.08432Z" fill="white"/>
<path d="M33.6981 15.6871L35.6197 13.7598L44.7368 22.9042H40.8528L33.6981 15.7281V15.6871Z" fill="white"/>
<path d="M34.1481 4H31V22.904H34.1481V4Z" fill="white"/>
<path d="M19 23H0V4L19 23Z" fill="url(#paint1_linear_4564_24531)"/>
<path d="M114.472 19.16L114.256 14.672L122.296 6.2H126.616L119.368 14L117.208 16.304L114.472 19.16ZM110.992 23V6.2H114.856V23H110.992ZM122.488 23L116.512 15.68L119.056 12.92L127.024 23H122.488ZM125.776 23L133.264 6.2H137.104L144.616 23H140.536L134.392 8.168H135.928L129.76 23H125.776ZM129.52 19.4L130.552 16.448H139.192L140.248 19.4H129.52ZM153.727 23.192C152.639 23.192 151.687 22.952 150.871 22.472C150.055 21.992 149.415 21.264 148.951 20.288C148.503 19.296 148.279 18.048 148.279 16.544C148.279 15.024 148.495 13.776 148.927 12.8C149.359 11.824 149.983 11.096 150.799 10.616C151.615 10.136 152.591 9.896 153.727 9.896C154.943 9.896 156.031 10.176 156.991 10.736C157.967 11.28 158.735 12.048 159.295 13.04C159.871 14.032 160.159 15.2 160.159 16.544C160.159 17.904 159.871 19.08 159.295 20.072C158.735 21.064 157.967 21.832 156.991 22.376C156.031 22.92 154.943 23.192 153.727 23.192ZM146.095 27.656V10.088H149.671V12.728L149.599 16.568L149.839 20.384V27.656H146.095ZM153.079 20.12C153.703 20.12 154.255 19.976 154.735 19.688C155.231 19.4 155.623 18.992 155.911 18.464C156.215 17.92 156.367 17.28 156.367 16.544C156.367 15.792 156.215 15.152 155.911 14.624C155.623 14.096 155.231 13.688 154.735 13.4C154.255 13.112 153.703 12.968 153.079 12.968C152.455 12.968 151.895 13.112 151.399 13.4C150.903 13.688 150.511 14.096 150.223 14.624C149.935 15.152 149.791 15.792 149.791 16.544C149.791 17.28 149.935 17.92 150.223 18.464C150.511 18.992 150.903 19.4 151.399 19.688C151.895 19.976 152.455 20.12 153.079 20.12ZM170.298 23.192C169.21 23.192 168.258 22.952 167.442 22.472C166.626 21.992 165.986 21.264 165.522 20.288C165.074 19.296 164.85 18.048 164.85 16.544C164.85 15.024 165.066 13.776 165.498 12.8C165.93 11.824 166.554 11.096 167.37 10.616C168.186 10.136 169.162 9.896 170.298 9.896C171.514 9.896 172.602 10.176 173.562 10.736C174.538 11.28 175.306 12.048 175.866 13.04C176.442 14.032 176.73 15.2 176.73 16.544C176.73 17.904 176.442 19.08 175.866 20.072C175.306 21.064 174.538 21.832 173.562 22.376C172.602 22.92 171.514 23.192 170.298 23.192ZM162.666 27.656V10.088H166.242V12.728L166.17 16.568L166.41 20.384V27.656H162.666ZM169.65 20.12C170.274 20.12 170.826 19.976 171.306 19.688C171.802 19.4 172.194 18.992 172.482 18.464C172.786 17.92 172.938 17.28 172.938 16.544C172.938 15.792 172.786 15.152 172.482 14.624C172.194 14.096 171.802 13.688 171.306 13.4C170.826 13.112 170.274 12.968 169.65 12.968C169.026 12.968 168.466 13.112 167.97 13.4C167.474 13.688 167.082 14.096 166.794 14.624C166.506 15.152 166.362 15.792 166.362 16.544C166.362 17.28 166.506 17.92 166.794 18.464C167.082 18.992 167.474 19.4 167.97 19.688C168.466 19.976 169.026 20.12 169.65 20.12ZM183.58 23.192C182.476 23.192 181.412 23.064 180.388 22.808C179.38 22.536 178.58 22.2 177.988 21.8L179.236 19.112C179.828 19.48 180.524 19.784 181.324 20.024C182.14 20.248 182.94 20.36 183.724 20.36C184.588 20.36 185.196 20.256 185.548 20.048C185.916 19.84 186.1 19.552 186.1 19.184C186.1 18.88 185.956 18.656 185.668 18.512C185.396 18.352 185.028 18.232 184.564 18.152C184.1 18.072 183.588 17.992 183.028 17.912C182.484 17.832 181.932 17.728 181.372 17.6C180.812 17.456 180.3 17.248 179.836 16.976C179.372 16.704 178.996 16.336 178.708 15.872C178.436 15.408 178.3 14.808 178.3 14.072C178.3 13.256 178.532 12.536 178.996 11.912C179.476 11.288 180.164 10.8 181.06 10.448C181.956 10.08 183.028 9.896 184.276 9.896C185.156 9.896 186.052 9.992 186.964 10.184C187.876 10.376 188.636 10.656 189.244 11.024L187.996 13.688C187.372 13.32 186.74 13.072 186.1 12.944C185.476 12.8 184.868 12.728 184.276 12.728C183.444 12.728 182.836 12.84 182.452 13.064C182.068 13.288 181.876 13.576 181.876 13.928C181.876 14.248 182.012 14.488 182.284 14.648C182.572 14.808 182.948 14.936 183.412 15.032C183.876 15.128 184.38 15.216 184.924 15.296C185.484 15.36 186.044 15.464 186.604 15.608C187.164 15.752 187.668 15.96 188.116 16.232C188.58 16.488 188.956 16.848 189.244 17.312C189.532 17.76 189.676 18.352 189.676 19.088C189.676 19.888 189.436 20.6 188.956 21.224C188.476 21.832 187.78 22.312 186.868 22.664C185.972 23.016 184.876 23.192 183.58 23.192Z" fill="url(#paint2_linear_4564_24531)"/>
<defs>
<linearGradient id="paint0_linear_4564_24531" x1="14.5" y1="13.9583" x2="14.5" y2="23.0181" gradientUnits="userSpaceOnUse">
<stop offset="2.71717e-07" stop-color="#FF4681"/>
<stop offset="1" stop-color="#9B44F6"/>
</linearGradient>
<linearGradient id="paint1_linear_4564_24531" x1="-4.52639" y1="8.97361" x2="14.5037" y2="28.0037" gradientUnits="userSpaceOnUse">
<stop offset="9.43019e-07" stop-color="#FF4681"/>
<stop offset="0.7392" stop-color="#9B44F6"/>
</linearGradient>
<linearGradient id="paint2_linear_4564_24531" x1="89.465" y1="7.5913" x2="107.726" y2="59.225" gradientUnits="userSpaceOnUse">
<stop offset="9.43019e-07" stop-color="#FF4681"/>
<stop offset="0.7392" stop-color="#9B44F6"/>
</linearGradient>
</defs>
</svg>
