<svg width="110" height="28" viewBox="0 0 110 28" fill="none" xmlns="http://www.w3.org/2000/svg">
<path d="M23.6552 23.5585H14L23.6552 13.9999V23.5585Z" fill="url(#paint0_linear_568_2519)"/>
<path opacity="0.14" d="M23.6552 23.5585L18.8276 18.7309L19.6966 17.9585L23.6552 23.5585Z" fill="url(#paint1_linear_568_2519)"/>
<path d="M23.6552 23.5585H4.44141V4.34473L23.6552 23.5585Z" fill="url(#paint2_linear_568_2519)"/>
<path d="M110 10.4247V13.4592C109.714 13.4182 109.469 13.3772 109.264 13.3772C107.997 13.3772 107.016 13.7462 106.321 14.4843C105.626 15.2224 105.258 16.2476 105.258 17.6008V24.2439H102.028V10.4247H105.094V12.557C105.993 11.1628 107.629 10.4247 110 10.4247Z" fill="white"/>
<path d="M99.8199 18.3389H89.2718C89.4763 19.3231 89.926 20.1022 90.7028 20.7173C91.4796 21.2914 92.4608 21.5784 93.6056 21.5784C95.0774 21.5784 96.3039 21.0864 97.2442 20.1022L99.0431 21.9065C98.4299 22.6446 97.5713 23.3007 96.631 23.6698C95.6906 24.0388 94.6685 24.2439 93.5238 24.2439C92.052 24.2439 90.7437 23.9568 89.6398 23.3417C88.5359 22.7676 87.6365 21.9475 87.0232 20.8813C86.41 19.8152 86.1238 18.626 86.1238 17.3138C86.1238 16.0016 86.41 14.8124 87.0232 13.7872C87.6365 12.7211 88.4542 11.9009 89.5172 11.3268C90.5801 10.7527 91.7658 10.4247 93.0741 10.4247C94.3824 10.4247 95.568 10.7117 96.5901 11.2858C97.6122 11.8599 98.4299 12.6801 99.0023 13.7462C99.5746 14.8124 99.8608 16.0016 99.8608 17.3958C99.8608 17.6008 99.8608 17.9289 99.8199 18.3389ZM90.5393 13.8692C89.8442 14.4843 89.4354 15.2635 89.2718 16.2476H96.8763C96.7536 15.2635 96.3448 14.4843 95.6498 13.8692C94.9547 13.2541 94.0962 12.9671 93.0741 12.9671C92.052 12.9671 91.2343 13.2541 90.5393 13.8692Z" fill="white"/>
<path d="M86.2871 10.4247L80.3181 24.2439H77.2109L71.2418 10.4247H74.5125L78.8462 20.5943L83.3026 10.4247H86.2871Z" fill="white"/>
<path d="M71.5283 18.3389H60.9802C61.1846 19.3231 61.6344 20.1022 62.4112 20.7173C63.188 21.2914 64.1692 21.5784 65.3139 21.5784C66.7858 21.5784 68.0123 21.0864 68.9526 20.1022L70.7515 21.9065C70.1382 22.6446 69.2797 23.3007 68.3393 23.6698C67.399 24.0388 66.3769 24.2439 65.2322 24.2439C63.7603 24.2439 62.452 23.9568 61.3482 23.3417C60.2443 22.7676 59.3449 21.9475 58.7316 20.8813C58.1183 19.8152 57.8322 18.626 57.8322 17.3138C57.8322 16.0016 58.1183 14.8124 58.7316 13.7872C59.3449 12.7211 60.1625 11.9009 61.2255 11.3268C62.2885 10.7527 63.4741 10.4247 64.7824 10.4247C66.0907 10.4247 67.2764 10.7117 68.2985 11.2858C69.3206 11.8599 70.1382 12.6801 70.7106 13.7462C71.283 14.8124 71.5692 16.0016 71.5692 17.3958C71.5692 17.6008 71.5692 17.9289 71.5283 18.3389ZM62.2067 13.8692C61.5117 14.4843 61.1029 15.2635 60.9393 16.2476H68.5438C68.4211 15.2635 68.0123 14.4843 67.3172 13.8692C66.6222 13.2541 65.7636 12.9671 64.7415 12.9671C63.7603 12.9671 62.9018 13.2541 62.2067 13.8692Z" fill="white"/>
<path d="M51.8219 5.34039H54.97V24.2443H51.8219V5.34039Z" fill="white"/>
<path d="M45.2805 10.4247H49.2053L40.6606 19.036L38.6981 17.0677L45.2805 10.4247Z" fill="white"/>
<path d="M38.6981 17.0274L40.6197 15.1001L49.7368 24.2446H45.8528L38.6981 17.0684V17.0274Z" fill="white"/>
<path d="M39.1481 5.34038H36V24.2443H39.1481V5.34038Z" fill="white"/>
<defs>
<linearGradient id="paint0_linear_568_2519" x1="18.8276" y1="13.9556" x2="18.8276" y2="23.5777" gradientUnits="userSpaceOnUse">
<stop offset="2.71717e-07" stop-color="#FF4681"/>
<stop offset="1" stop-color="#9B44F6"/>
</linearGradient>
<linearGradient id="paint1_linear_568_2519" x1="21.1564" y1="18.5887" x2="19.802" y2="22.1648" gradientUnits="userSpaceOnUse">
<stop offset="9.43019e-07"/>
<stop offset="1"/>
</linearGradient>
<linearGradient id="paint2_linear_568_2519" x1="-0.135918" y1="9.3743" x2="19.1083" y2="28.6185" gradientUnits="userSpaceOnUse">
<stop offset="9.43019e-07" stop-color="#FF4681"/>
<stop offset="0.7392" stop-color="#9B44F6"/>
</linearGradient>
</defs>
</svg>
