<svg width="164" height="31" viewBox="0 0 164 31" fill="none" xmlns="http://www.w3.org/2000/svg">
<path d="M29.9491 29.9491H14.8993L29.9491 15.0498V29.9491Z" fill="url(#paint0_linear_24_495)"/>
<path opacity="0.14" d="M29.949 29.9491L22.4241 22.4242L23.7786 21.2202L29.949 29.9491Z" fill="url(#paint1_linear_24_495)"/>
<path d="M29.9491 29.9491H0V0L29.9491 29.9491Z" fill="url(#paint2_linear_24_495)"/>
<path d="M73.7872 0H78.7536V29.9491H73.7872V0Z" fill="white"/>
<path d="M164 8.1272H157.754H153.089V12.3411V29.9494H157.754V12.3411H164V8.1272Z" fill="white"/>
<path d="M104.618 20.6182H87.9125C88.2135 22.1232 88.966 23.4777 90.17 24.3806C91.3739 25.2836 92.8789 25.7351 94.8354 25.7351C97.2434 25.7351 99.0493 24.9826 100.705 23.4777L103.564 26.3371C102.661 27.5411 101.156 28.5946 99.8018 29.1966C98.2969 29.7986 96.6414 30.0996 94.8354 30.0996C92.4274 30.0996 90.471 29.6481 88.665 28.7451C86.859 27.8421 85.5045 26.4876 84.451 24.8321C83.548 23.1767 82.946 21.2202 82.946 19.1132C82.946 17.0062 83.3975 15.2003 84.3005 13.5448C85.2035 11.8893 86.558 10.5348 88.2135 9.63183C89.869 8.72884 91.8254 8.27734 93.9324 8.27734C96.0394 8.27734 97.8454 8.72884 99.5008 9.63183C101.156 10.5348 102.36 11.8893 103.414 13.5448C104.317 15.2003 104.768 17.1567 104.768 19.2637C104.768 19.4142 104.768 20.0162 104.618 20.6182ZM89.869 13.5448C88.8155 14.4478 88.063 15.8023 87.9125 17.3072H100.103C99.9523 15.8023 99.1999 14.4478 98.1464 13.5448C97.0929 12.6418 95.7384 12.0398 94.0829 12.0398C92.2769 12.0398 90.9225 12.4913 89.869 13.5448Z" fill="white"/>
<path d="M149.821 20.6182H133.116C133.417 22.1232 134.169 23.4777 135.373 24.3806C136.577 25.2836 138.082 25.7351 140.039 25.7351C142.447 25.7351 144.253 24.9826 145.908 23.4777L148.767 26.3371C147.864 27.5411 146.359 28.5946 145.005 29.1966C143.5 29.7986 141.845 30.0996 140.039 30.0996C137.631 30.0996 135.674 29.6481 133.868 28.7451C132.062 27.8421 130.708 26.4876 129.654 24.8321C128.751 23.1767 128.149 21.2202 128.149 19.1132C128.149 17.0062 128.601 15.2003 129.504 13.5448C130.407 11.8893 131.761 10.5348 133.417 9.63183C135.072 8.72884 137.029 8.27734 139.136 8.27734C141.243 8.27734 143.049 8.72884 144.704 9.63183C146.359 10.5348 147.563 11.8893 148.617 13.5448C149.52 15.2003 149.971 17.1567 149.971 19.2637C149.971 19.4142 149.971 20.0162 149.821 20.6182ZM135.072 13.5448C134.019 14.4478 133.266 15.8023 133.116 17.3072H145.306C145.155 15.8023 144.403 14.4478 143.35 13.5448C142.296 12.6418 140.942 12.0398 139.286 12.0398C137.631 12.0398 136.126 12.4913 135.072 13.5448Z" fill="white"/>
<path d="M128.569 8.12695L119.087 30.0997H114.121L104.639 8.12695H109.907L116.83 24.2303L123.903 8.12695H128.569Z" fill="white"/>
<path d="M63.4027 8.12695H69.5731L56.0283 21.6718L52.8678 18.5113L63.4027 8.12695Z" fill="white"/>
<path d="M52.8678 18.5112L56.0283 15.5012L70.4761 29.949H64.3057L52.8678 18.5112Z" fill="white"/>
<path d="M53.6204 0H48.6539V29.9491H53.6204V0Z" fill="white"/>
<defs>
<linearGradient id="paint0_linear_24_495" x1="22.4242" y1="14.9807" x2="22.4242" y2="29.9791" gradientUnits="userSpaceOnUse">
<stop offset="2.71717e-07" stop-color="#FF4681"/>
<stop offset="1" stop-color="#9B44F6"/>
</linearGradient>
<linearGradient id="paint1_linear_24_495" x1="26.054" y1="22.2025" x2="23.9429" y2="27.7768" gradientUnits="userSpaceOnUse">
<stop offset="9.43019e-07"/>
<stop offset="1"/>
</linearGradient>
<linearGradient id="paint2_linear_24_495" x1="-7.13482" y1="7.83975" x2="22.8617" y2="37.8363" gradientUnits="userSpaceOnUse">
<stop offset="9.43019e-07" stop-color="#FF4681"/>
<stop offset="0.7392" stop-color="#9B44F6"/>
</linearGradient>
</defs>
</svg>
